<svg width="502" height="117" viewBox="0 0 502 120" fill="none" xmlns="http://www.w3.org/2000/svg">

  <g clip-path="url(#clip0_1663_6462)" filter="url(#f1)">
    <path d="M4.81875 87.313C1.60228 83.8082 -0.00830078 78.737 -0.00830078 72.104V23.8755C-0.00830078 23.5368 0.235869 23.2545 0.569254 23.2028L11.956 21.5422C13.1816 21.3634 14.2756 22.3137 14.2756 23.5556V72.104C14.2756 74.823 14.9377 76.94 16.2619 78.4548C17.586 79.9695 19.4783 80.7316 21.9388 80.7316H22.6807C23.0563 80.7316 23.3569 81.0327 23.3569 81.4091V91.2222C23.3569 91.9702 22.7511 92.5771 22.0045 92.5771H18.8209C12.7026 92.5771 8.03521 90.8224 4.81875 87.313Z" fill="white"/>
<path d="M33.4138 42.8682H44.8992C45.6458 42.8682 46.2515 43.475 46.2515 44.223V91.9528C46.2515 92.3291 45.951 92.6302 45.5754 92.6302H32.7377C32.362 92.6302 32.0615 92.3291 32.0615 91.9528V44.223C32.0615 43.475 32.6673 42.8682 33.4138 42.8682Z" fill="white"/>
<path d="M65.0344 91.5887C61.8038 90.4503 58.9818 88.9684 56.5777 87.1526C55.7043 86.4893 55.5399 85.2332 56.1832 84.3488L60.968 77.7675C61.1981 77.4523 61.6395 77.4006 61.9447 77.6452C63.7995 79.1318 66.0627 80.3031 68.7251 81.164C71.6599 82.1096 74.7308 82.5847 77.9519 82.5847C80.5392 82.5847 82.4127 82.2554 83.5819 81.5921C84.7464 80.9288 85.3334 79.9033 85.3334 78.5108C85.3334 77.0572 84.6243 75.9375 83.2063 75.1472C81.7882 74.3569 79.3089 73.6465 75.7779 73.0162C71.364 72.1976 67.847 71.1674 65.2269 69.9349C62.6068 68.7023 60.6534 67.0276 59.3621 64.9107C58.0709 62.7937 57.4229 60.0605 57.4229 56.7111C57.4229 53.8038 58.2399 51.2118 59.8834 48.9396C61.5221 46.6627 63.8417 44.8986 66.8375 43.6331C69.8333 42.3677 73.2845 41.7373 77.1959 41.7373C81.3609 41.7373 85.2066 42.4335 88.7376 43.8213C91.5691 44.9362 94.053 46.3946 96.1989 48.201C97.0676 48.9349 97.1239 50.2615 96.3586 51.1036L90.9774 56.9933C90.7333 57.2615 90.3247 57.2803 90.043 57.0498C88.3902 55.6808 86.5072 54.6224 84.3895 53.8744C82.0558 53.0558 79.6611 52.6419 77.2006 52.6419C72.5943 52.6419 70.2934 53.9355 70.2934 56.5276C70.2934 57.4732 70.5611 58.2494 71.0964 58.8515C71.6317 59.4537 72.5943 59.9759 73.9795 60.4134C75.3647 60.8556 77.4495 61.3307 80.2246 61.8341C86.3429 63.0337 90.8694 64.9154 93.7995 67.4745C96.7342 70.0336 98.1992 73.5901 98.1992 78.1392C98.1992 82.9422 96.4149 86.7339 92.8557 89.5141C89.2917 92.2944 84.2628 93.6822 77.7641 93.6822C73.2188 93.6727 68.974 92.9765 65.0344 91.5887Z" fill="white"/>
<path d="M113.188 88.1743C109.624 84.4485 107.845 79.2973 107.845 72.7254V31.3276C107.845 30.9889 108.094 30.7019 108.427 30.6549L120.589 28.9614C121.401 28.8485 122.129 29.4788 122.129 30.3021V42.8673H137.779C138.526 42.8673 139.131 43.4741 139.131 44.2221V53.3578C139.131 54.1058 138.526 54.7127 137.779 54.7127H122.129V72.6266C122.129 75.3457 122.791 77.4768 124.115 79.0245C125.439 80.5722 127.266 81.3484 129.604 81.3484C131.182 81.3484 132.52 81.1273 133.623 80.6851C134.548 80.3135 135.488 79.7866 136.436 79.1045C136.741 78.8834 137.164 78.9398 137.385 79.2456L142.329 86.0198C142.958 86.8807 142.827 88.0991 142 88.7812C140.282 90.1972 138.389 91.3215 136.323 92.1589C133.675 93.2315 130.9 93.7725 127.998 93.7725C121.687 93.7678 116.752 91.9049 113.188 88.1743Z" fill="white"/>
<path d="M152.593 89.8348C149.625 87.2145 148.146 83.564 148.146 78.8879C148.146 74.1507 149.991 70.4202 153.682 67.7011C157.373 64.9867 162.59 63.6272 169.342 63.6272H179.372C179.306 56.6131 176.094 53.1037 169.722 53.1037C167.323 53.1037 165.008 53.5177 162.768 54.3362C160.735 55.0842 158.871 56.1427 157.176 57.5116C156.889 57.7421 156.471 57.7139 156.232 57.4316L151.071 51.3396C150.334 50.4693 150.447 49.1474 151.344 48.437C153.724 46.5459 156.363 45.0217 159.265 43.8644C162.829 42.4437 166.468 41.7334 170.192 41.7334C177.446 41.7334 182.95 43.6951 186.701 47.6091C190.453 51.5277 192.331 57.2152 192.331 64.6716V90.6016C192.331 91.726 191.425 92.6339 190.303 92.6339H182.987C182.691 92.6339 182.433 92.441 182.344 92.1588L180.696 86.9464C178.423 89.0963 175.934 90.771 173.22 91.9706C170.506 93.1702 167.698 93.7723 164.801 93.7723C159.627 93.7676 155.556 92.4551 152.593 89.8348ZM179.367 77.5613V72.7253H168.868C166.28 72.7253 164.247 73.2146 162.763 74.1931C161.28 75.1715 160.538 76.517 160.538 78.2199C160.538 79.6736 161.153 80.892 162.383 81.8705C163.613 82.849 165.172 83.3382 167.064 83.3382C171.737 83.3429 175.836 81.4141 179.367 77.5613Z" fill="white"/>
<path d="M368.349 92.9052C364.504 90.6942 361.536 87.5988 359.456 83.6142C357.376 79.6344 356.333 75.0524 356.333 69.873C356.333 65.0087 357.404 60.6149 359.55 56.6962C361.691 52.7775 364.645 49.7151 368.396 47.504C372.148 45.293 376.36 44.1875 381.027 44.1875C385.695 44.1875 389.761 45.2648 393.231 47.4099C396.701 49.5598 399.364 52.6082 401.228 56.5551C403.087 60.5067 404.017 65.1028 404.017 70.3481V71.9146C404.017 73.039 403.111 73.9469 401.989 73.9469H369.298C369.866 77.2963 371.364 79.9355 373.792 81.8595C376.219 83.7883 379.234 84.7527 382.826 84.7527C387.371 84.7527 391.1 83.3602 394.001 80.5705C394.264 80.3165 394.673 80.3071 394.94 80.5564L400.786 86.0605C401.636 86.8602 401.65 88.2197 400.801 89.0147C395.645 93.8178 389.372 96.217 381.976 96.217C376.736 96.2217 372.195 95.1162 368.349 92.9052ZM387.935 57.5054C386.23 55.8306 383.835 54.9933 380.746 54.9933C377.844 54.9933 375.43 55.8447 373.51 57.5524C371.585 59.2601 370.279 61.6263 369.584 64.6606H390.776C390.583 61.5652 389.634 59.1801 387.935 57.5054Z" fill="white"/>
<path d="M423.841 45.8011L425.682 51.7708C430.41 46.7137 435.961 44.1875 442.332 44.1875C448.258 44.1875 452.865 46.1774 456.147 50.1573C459.424 54.1371 461.068 59.6976 461.068 66.8387V94.4059C461.068 94.7822 460.767 95.0833 460.392 95.0833H447.46C447.084 95.0833 446.784 94.7822 446.784 94.4059V68.5464C446.784 64.5007 446.108 61.5322 444.751 59.6364C443.394 57.7406 441.107 56.7903 437.89 56.7903C435.932 56.7903 434.045 57.3454 432.214 58.4509C430.382 59.5564 428.809 61.09 427.485 63.047V94.4059C427.485 94.7822 427.185 95.0833 426.809 95.0833H413.877C413.502 95.0833 413.201 94.7822 413.201 94.4059V47.3582C413.201 46.2339 414.107 45.3259 415.23 45.3259H423.203C423.494 45.3259 423.752 45.5188 423.841 45.8011Z" fill="white"/>
<path d="M275.405 45.7926L277.429 52.054C282.284 46.9969 288.403 44.4707 295.784 44.4707H297.014V56.3208H295.216C292 56.3208 288.938 56.9042 286.041 58.0755C283.139 59.2469 280.805 60.964 279.04 63.2408V93.7341C279.04 94.4821 278.434 95.0889 277.687 95.0889H266.108C265.362 95.0889 264.756 94.4821 264.756 93.7341V46.6817C264.756 45.9337 265.362 45.3269 266.108 45.3269H274.767C275.053 45.3269 275.316 45.5151 275.405 45.7926Z" fill="white"/>
<path d="M313.477 92.9052C309.632 90.6942 306.664 87.5988 304.584 83.6142C302.504 79.6344 301.461 75.0524 301.461 69.873C301.461 65.0087 302.532 60.6149 304.678 56.6962C306.819 52.7775 309.773 49.7151 313.524 47.504C317.276 45.293 321.488 44.1875 326.155 44.1875C330.823 44.1875 334.889 45.2648 338.359 47.4099C341.829 49.5598 344.492 52.6082 346.356 56.5551C348.215 60.5067 349.145 65.1028 349.145 70.3481V73.9516H314.426C314.994 77.301 316.492 79.9402 318.92 81.8642C321.347 83.793 324.357 84.7574 327.954 84.7574C332.499 84.7574 336.227 83.3649 339.129 80.5752C339.392 80.3212 339.801 80.3118 340.068 80.5611L345.914 86.0652C346.764 86.8649 346.778 88.2244 345.928 89.0195C340.773 93.8225 334.499 96.2217 327.104 96.2217C321.864 96.2217 317.323 95.1162 313.477 92.9052ZM333.063 57.5054C331.358 55.8306 328.963 54.9933 325.874 54.9933C322.972 54.9933 320.558 55.8447 318.638 57.5524C316.713 59.2601 315.407 61.6263 314.712 64.6606H335.903C335.711 61.5652 334.762 59.1801 333.063 57.5054Z" fill="white"/>
<path d="M251.18 45.3281H243.794C243.207 45.3281 242.686 45.7091 242.503 46.2736L241.479 49.5008C239.521 47.859 237.3 46.5606 234.811 45.615C232.318 44.6695 229.811 44.1943 227.289 44.1943C222.81 44.1943 218.729 45.2387 215.038 47.3227C211.348 49.4067 208.432 52.3798 206.286 56.2326C204.14 60.0855 203.069 64.5122 203.069 69.5035C203.069 74.3065 203.999 78.4934 205.859 82.0639C207.718 85.6345 210.291 88.3677 213.569 90.2635C216.846 92.1594 220.603 93.1049 224.829 93.1049C230.125 93.1049 234.858 91.2749 239.019 87.6056V90.9221C239.019 95.0948 237.774 98.4114 235.281 100.876C232.788 103.341 229.618 104.574 225.772 104.574C219.983 104.574 215.142 102.899 211.258 99.5451C210.967 99.2958 210.531 99.324 210.286 99.6251L204.774 106.475C204.093 107.321 204.206 108.54 205.004 109.274C207.197 111.282 209.911 112.905 213.141 114.147C217.081 115.662 221.514 116.424 226.435 116.424C231.67 116.424 236.323 115.347 240.39 113.202C244.456 111.052 247.612 108.05 249.851 104.198C252.091 100.345 253.209 95.951 253.209 91.0209V47.3697C253.209 46.236 252.302 45.3281 251.18 45.3281ZM239.333 75.9719C238.85 76.7387 238.272 77.4678 237.601 78.1311C233.764 81.9557 228.054 82.7602 223.439 80.5303C223.434 80.5303 223.434 80.5256 223.425 80.5256C222.204 79.9329 221.053 79.1332 220.039 78.1076C215.198 73.2387 215.212 65.3684 220.063 60.5182C224.105 56.4773 230.243 55.8139 234.971 58.5142C235.924 59.0552 236.816 59.7279 237.624 60.5418C238.281 61.2004 238.854 61.9248 239.329 62.6822V75.9719H239.333Z" fill="white"/>
<path d="M42.2569 27.6593C39.1578 25.9093 35.237 27.0101 33.4902 30.1103L33.4715 30.1479C31.7576 33.2433 32.8563 37.1526 35.9413 38.8932C38.3924 40.2763 41.3647 39.8764 43.365 38.1076C43.8815 37.6513 44.3276 37.1056 44.6892 36.4752C44.6986 36.4611 44.7033 36.4517 44.7126 36.4375C45.2104 35.5531 45.478 34.6029 45.5297 33.6573C45.6658 31.2769 44.4732 28.9107 42.2569 27.6593Z" fill="white"/>
<path d="M487.636 1.43189C480.588 -1.10843 472.399 0.392242 466.671 5.97154C458.66 13.776 458.477 26.6093 466.271 34.6395L466.365 34.7336L470.347 30.8526C470.31 30.8243 470.281 30.7914 470.249 30.7585C464.595 24.9346 464.727 15.6153 470.54 9.95138C474.7 5.90097 480.64 4.81428 485.758 6.65837C487.791 7.38753 489.698 8.58243 491.308 10.243C491.341 10.276 491.369 10.3042 491.397 10.3418L495.375 6.46549C495.346 6.42786 495.318 6.39963 495.285 6.3667C493.064 4.08982 490.44 2.44332 487.636 1.43189Z" fill="white"/>
<path d="M495.374 6.47363C496.952 8.11543 498.201 9.95952 499.112 11.9165C502.662 19.5234 501.23 28.8614 494.886 35.0381C486.908 42.8096 474.16 42.6638 466.365 34.7323L470.347 30.8513C476.005 36.5858 485.237 36.6799 491.017 31.0489C495.623 26.561 496.656 19.7868 494.083 14.2687C493.431 12.8574 492.534 11.5261 491.397 10.3453L495.374 6.47363Z" fill="white"/>
<path fill-rule="evenodd" clip-rule="evenodd" d="M483.753 14.2943C482.677 12.6289 481.644 11.4387 481.339 11.1L481.278 11.0342L481.245 11.0718C480.94 11.4105 479.898 12.6101 478.813 14.2943H483.753Z" fill="white"/>
<path fill-rule="evenodd" clip-rule="evenodd" d="M476.572 25.7729H486.034C486.306 25.1567 486.508 24.4604 486.607 23.6748H475.985C476.089 24.4604 476.295 25.1614 476.572 25.7729Z" fill="white"/>
<path fill-rule="evenodd" clip-rule="evenodd" d="M476.277 19.8496C476.103 20.5411 475.986 21.2421 475.944 21.9477H486.645C486.598 21.2421 486.481 20.5411 486.302 19.8496H476.277Z" fill="white"/>
<path fill-rule="evenodd" clip-rule="evenodd" d="M484.777 16.0195H477.799C477.447 16.6828 477.118 17.3885 476.836 18.1176H485.739C485.457 17.3885 485.129 16.6828 484.777 16.0195Z" fill="white"/>
<path fill-rule="evenodd" clip-rule="evenodd" d="M481.329 29.9725C481.329 29.9725 483.386 29.3515 484.949 27.498H477.676C479.258 29.3468 481.329 29.9725 481.329 29.9725Z" fill="white"/>
 </g>
</svg>
