<svg width="427" height="427" viewBox="0 0 427 427" fill="none" xmlns="http://www.w3.org/2000/svg">
<path d="M242.765 91.6163C242.192 91.5344 241.527 91.5447 241.4 92.0541C238.08 101.609 188.498 259.774 188.498 260.124C188.498 260.355 188.682 260.679 188.938 260.701C190.137 260.879 310.597 293.818 315.179 295.322C315.476 295.409 315.795 295.382 316.073 295.245C316.351 295.108 316.568 294.872 316.68 294.584C318.16 290.168 366.786 134.974 369.56 127.093C369.608 126.989 369.613 126.871 369.575 126.764C369.537 126.657 369.458 126.569 369.356 126.52C364.877 124.723 243.207 91.6899 242.765 91.6163ZM315.498 294.052C314.761 293.741 189.93 259.604 189.723 259.57C189.766 259.365 232.825 122.712 234.513 117.225C250.808 121.615 351.32 148.701 360.427 151.152C360.126 152.097 316.952 289.685 315.498 294.052Z" fill="#26847B"/>
<path d="M280.231 136.062C280.347 135.739 279.822 135.575 279.699 135.923C277.051 143.95 242.113 265.028 241.358 267.291C241.342 267.369 241.356 267.45 241.398 267.517C241.439 267.585 241.505 267.634 241.582 267.654C241.658 267.675 241.74 267.666 241.81 267.628C241.879 267.591 241.932 267.528 241.958 267.453C244.427 259.931 280.18 136.267 280.231 136.062Z" fill="#26847B"/>
<path d="M219.868 188.871C222.73 189.863 225.666 190.628 228.649 191.159C231.677 191.897 249.404 196.544 250.859 196.937C252.263 197.402 253.699 197.765 255.156 198.023C255.643 198.093 255.849 197.307 255.411 197.098C254.03 196.567 252.607 196.15 251.158 195.85C249.701 195.457 231.882 190.835 228.948 190.095C226.003 189.215 222.999 188.551 219.958 188.108C219.497 188.061 219.493 188.716 219.868 188.871Z" fill="#26847B"/>
<path d="M218.292 196.197C221.166 197.153 224.1 197.918 227.075 198.487C230.104 199.225 247.83 203.872 249.285 204.265C250.69 204.729 252.126 205.092 253.582 205.351C254.067 205.421 254.276 204.633 253.836 204.426C252.455 203.895 251.033 203.478 249.584 203.178C248.127 202.785 230.308 198.163 227.374 197.423C224.43 196.542 221.425 195.878 218.384 195.436C217.923 195.389 217.923 196.056 218.292 196.197Z" fill="#26847B"/>
<path d="M240.895 244.084C239.511 243.562 238.089 243.145 236.641 242.838C235.187 242.444 217.368 237.822 214.432 237.083C211.487 236.202 208.482 235.538 205.441 235.096C204.979 235.049 204.979 235.696 205.349 235.857C208.218 236.828 211.153 237.593 214.131 238.147C217.159 238.885 234.886 243.532 236.341 243.925C237.745 244.388 239.181 244.751 240.637 245.009C240.745 245.007 240.849 244.97 240.934 244.904C241.019 244.838 241.081 244.746 241.11 244.643C241.139 244.539 241.134 244.429 241.095 244.328C241.056 244.227 240.986 244.142 240.895 244.084Z" fill="#26847B"/>
<path d="M239.323 251.412C237.938 250.89 236.516 250.473 235.069 250.164C233.614 249.772 215.793 245.15 212.859 244.411C209.915 243.53 206.91 242.866 203.869 242.422C203.406 242.377 203.406 243.024 203.777 243.185C206.646 244.157 209.58 244.921 212.558 245.473C215.587 246.213 233.313 250.858 234.768 251.251C236.172 251.716 237.608 252.079 239.065 252.337C239.173 252.335 239.277 252.298 239.362 252.232C239.447 252.166 239.509 252.074 239.538 251.971C239.566 251.867 239.561 251.757 239.522 251.656C239.484 251.555 239.414 251.47 239.323 251.412Z" fill="#26847B"/>
<path d="M339.701 178.079C336.98 177.079 334.202 176.246 331.38 175.583C327.822 174.519 305.911 167.955 298.469 165.874C295.304 164.818 292.058 164.022 288.763 163.495C288.3 163.448 288.276 164.108 288.669 164.258C291.374 165.281 294.285 165.829 297.057 166.637C306.494 169.352 337.823 178.813 339.374 179.026C339.816 179.049 340.278 178.33 339.701 178.079Z" fill="#26847B"/>
<path d="M338.129 185.403C335.411 184.395 332.632 183.561 329.808 182.907C326.248 181.845 304.339 175.281 296.897 173.2C293.731 172.144 290.484 171.348 287.189 170.821C286.728 170.774 286.704 171.435 287.097 171.582C289.801 172.605 292.713 173.155 295.485 173.963C304.924 176.67 336.263 186.139 337.804 186.35C338.244 186.375 338.685 185.653 338.129 185.403Z" fill="#26847B"/>
<path d="M335.817 192.731C333.088 191.755 330.311 190.922 327.495 190.235C323.937 189.173 302.026 182.609 294.585 180.528C291.419 179.473 288.173 178.676 284.878 178.147C284.416 178.102 284.394 178.761 284.786 178.91C287.489 179.933 290.403 180.481 293.175 181.291C302.612 184.005 333.941 193.468 335.493 193.678C335.931 193.703 336.392 192.97 335.817 192.731Z" fill="#26847B"/>
<path d="M320.979 235.049C318.25 234.073 315.473 233.239 312.658 232.553C309.099 231.489 287.188 224.925 279.747 222.847C276.582 221.79 273.335 220.993 270.041 220.465C269.578 220.42 269.556 221.089 269.948 221.228C272.651 222.251 275.565 222.8 278.337 223.608C287.774 226.323 319.103 235.786 320.655 235.997C321.093 236.019 321.554 235.289 320.979 235.049Z" fill="#26847B"/>
<path d="M319.407 242.376C316.679 241.398 313.901 240.565 311.085 239.879C307.527 238.815 285.616 232.252 278.175 230.171C275.01 229.115 271.763 228.319 268.468 227.791C268.006 227.744 267.984 228.415 268.374 228.555C271.079 229.578 273.991 230.126 276.763 230.934C286.199 233.647 317.528 243.11 319.081 243.323C319.521 243.345 319.982 242.615 319.407 242.376Z" fill="#26847B"/>
<path d="M317.123 249.678C314.405 248.669 311.626 247.835 308.802 247.182C305.242 246.12 283.333 239.556 275.891 237.476C272.725 236.42 269.478 235.623 266.183 235.094C265.722 235.049 265.698 235.72 266.091 235.857C268.795 236.88 271.707 237.428 274.479 238.239C283.916 240.952 315.245 250.415 316.796 250.625C317.238 250.65 317.679 249.92 317.123 249.678Z" fill="#26847B"/>
<path d="M226.517 176.967C259.178 185.202 259.074 185.652 259.313 184.779C259.928 182.338 260.383 179.86 260.676 177.36C260.676 177.27 260.646 177.184 260.592 177.113C260.537 177.042 260.461 176.991 260.375 176.967C249.327 173.581 241.079 171.868 229.013 168.74C228.888 168.708 228.755 168.727 228.643 168.791C228.531 168.856 228.448 168.961 228.412 169.085C227.458 171.437 226.705 173.864 226.161 176.343C226.142 176.407 226.136 176.475 226.143 176.542C226.151 176.608 226.172 176.673 226.205 176.731C226.238 176.79 226.283 176.841 226.337 176.881C226.391 176.922 226.452 176.951 226.517 176.967Z" fill="#26847B"/>
<path d="M341.64 162.268C332.12 159.608 300.964 151.498 294.955 149.926C294.85 149.899 294.739 149.907 294.639 149.948C294.539 149.99 294.455 150.064 294.401 150.158C293.615 151.204 293.121 152.44 292.969 153.74C292.938 153.866 292.957 153.999 293.022 154.111C293.087 154.223 293.192 154.305 293.316 154.342C309.286 158.501 325.235 162.731 341.226 166.753C341.337 166.782 341.454 166.767 341.554 166.711C341.653 166.655 341.726 166.562 341.758 166.452C342.05 165.21 342.113 163.925 341.943 162.661C341.944 162.571 341.915 162.483 341.86 162.411C341.805 162.34 341.727 162.289 341.64 162.268Z" fill="#26847B"/>
<path d="M278.98 201.166C278.875 201.139 278.764 201.147 278.664 201.189C278.564 201.23 278.48 201.304 278.425 201.397C277.639 202.444 277.145 203.68 276.993 204.98C276.962 205.106 276.981 205.238 277.045 205.35C277.109 205.462 277.215 205.545 277.339 205.582C293.31 209.741 309.257 213.97 325.251 217.991C325.361 218.021 325.478 218.007 325.578 217.951C325.677 217.895 325.75 217.802 325.781 217.692C326.074 216.45 326.137 215.165 325.967 213.901C325.9 213.438 328.795 214.195 278.98 201.166Z" fill="#26847B"/>
<path d="M211.918 223.769C244.826 232.068 244.478 232.447 244.714 231.583C245.328 229.142 245.783 226.664 246.076 224.164C246.076 224.075 246.047 223.987 245.993 223.916C245.938 223.845 245.862 223.793 245.776 223.769C234.727 220.383 226.479 218.671 214.414 215.542C214.288 215.511 214.155 215.529 214.043 215.594C213.93 215.659 213.848 215.765 213.812 215.89C212.857 218.241 212.104 220.669 211.562 223.147C211.528 223.277 211.547 223.415 211.613 223.531C211.68 223.647 211.789 223.733 211.918 223.769Z" fill="#26847B"/>
<path d="M201.163 91.0164C205.846 91.8901 210.354 92.2441 224.576 93.5126C227.126 93.9313 229.715 94.0631 232.295 93.9054C232.641 93.8584 232.571 93.351 232.295 93.2589C229.844 92.7143 227.341 92.4351 224.829 92.4261C208.052 90.9407 206.701 90.5377 201.279 90.3699C200.886 90.3453 200.792 90.9428 201.163 91.0164Z" fill="#26847B"/>
<path d="M245.566 82.5536C245.566 82.6426 245.601 82.7279 245.664 82.7909C245.727 82.8538 245.812 82.8891 245.901 82.8891C245.99 82.8891 246.076 82.8538 246.139 82.7909C246.202 82.7279 246.237 82.6426 246.237 82.5536C246.544 76.2109 246.032 71.5438 246.032 59.0016C246.215 56.4654 246.13 53.9169 245.779 51.3985C245.758 51.329 245.715 51.2681 245.657 51.2249C245.598 51.1816 245.528 51.1582 245.455 51.1582C245.383 51.1582 245.312 51.1816 245.254 51.2249C245.196 51.2681 245.153 51.329 245.132 51.3985C244.787 53.8382 244.718 56.3091 244.927 58.7643C244.917 63.6154 245.009 77.3751 245.566 82.5536Z" fill="#26847B"/>
<path d="M226.176 74.1443C227.862 76.1801 229.527 78.1893 231.238 80.2005C232.734 82.3053 234.472 84.228 236.414 85.9295C236.715 86.1341 237.016 85.7453 236.877 85.4671C235.533 83.3444 233.959 81.3759 232.185 79.597C221.785 67.202 220.836 65.5591 217.002 61.4772C216.748 61.199 216.261 61.5693 216.47 61.8701C219.381 66.1708 222.868 70.1483 226.176 74.1443Z" fill="#26847B"/>
<path d="M407.65 138.925C402.572 137.18 400.315 136.904 385.07 132.732C382.64 131.848 380.122 131.231 377.559 130.891C377.488 130.893 377.419 130.918 377.363 130.963C377.308 131.007 377.268 131.069 377.25 131.137C377.232 131.206 377.236 131.279 377.263 131.345C377.289 131.411 377.336 131.467 377.397 131.504C379.691 132.524 382.094 133.279 384.558 133.755C396.712 137.07 402.623 138.729 407.484 139.58C407.527 139.591 407.572 139.593 407.616 139.587C407.66 139.581 407.702 139.566 407.74 139.543C407.778 139.52 407.811 139.49 407.838 139.455C407.864 139.419 407.883 139.379 407.894 139.336C407.905 139.293 407.908 139.248 407.901 139.204C407.895 139.16 407.88 139.118 407.857 139.08C407.834 139.042 407.804 139.009 407.769 138.982C407.733 138.956 407.693 138.936 407.65 138.925Z" fill="#26847B"/>
<path d="M380.073 87.1565C380.12 86.7862 379.611 86.7473 379.46 86.9949C378.265 89.2051 377.311 91.5373 376.616 93.9514C371.279 108.09 370.031 110.32 368.202 116.049C368.088 116.397 368.642 116.65 368.804 116.304C371.116 111.658 372.871 106.666 374.766 101.835C375.715 99.3796 376.663 96.9366 377.585 94.4691C378.697 92.1367 379.532 89.6826 380.073 87.1565Z" fill="#26847B"/>
<path d="M389.762 115.19C394.292 112.556 398.984 110.038 403.266 107.006C403.339 106.958 403.39 106.884 403.409 106.799C403.428 106.714 403.414 106.626 403.369 106.551C403.325 106.477 403.253 106.422 403.17 106.399C403.086 106.376 402.997 106.386 402.92 106.427C397.351 109.199 393.955 111.632 382.581 118.03C380.238 119.13 378.019 120.475 375.96 122.042C375.909 122.094 375.877 122.161 375.869 122.234C375.86 122.306 375.875 122.379 375.912 122.441C375.948 122.504 376.004 122.553 376.071 122.581C376.138 122.609 376.213 122.615 376.283 122.596C378.629 121.693 380.862 120.522 382.939 119.106C385.21 117.825 387.497 116.518 389.762 115.19Z" fill="#26847B"/>
<path d="M252.155 131.877C249.335 132.201 245.705 133.172 244.204 135.83C244.164 135.901 244.152 135.984 244.17 136.063C244.187 136.142 244.232 136.212 244.297 136.26C244.362 136.308 244.443 136.331 244.523 136.324C244.604 136.317 244.679 136.281 244.736 136.223C250.532 131.051 261.757 131.212 265.836 139.227C266.944 141.65 267.436 144.31 267.269 146.969C267.299 149.227 266.76 151.457 265.702 153.452C264.644 155.447 263.101 157.144 261.214 158.386C258.752 159.664 256.002 160.286 253.229 160.193C250.456 160.101 247.754 159.296 245.382 157.856C243.949 156.928 242.732 155.703 241.814 154.263C240.897 152.823 240.299 151.203 240.062 149.512C239.625 145.471 240.623 141.405 242.882 138.026C243.044 137.772 242.651 137.563 242.489 137.794C238.282 143.319 237.566 151.503 242.536 156.823C244.847 158.961 247.712 160.409 250.804 161.001C253.897 161.594 257.094 161.307 260.032 160.174C272.928 154.877 271.473 129.565 252.155 131.877Z" fill="#26847B"/>
<path d="M256.771 144.843C257.214 144.555 257.593 144.179 257.884 143.739C258.176 143.299 258.375 142.804 258.468 142.284C258.561 141.765 258.547 141.231 258.426 140.717C258.305 140.204 258.081 139.72 257.766 139.296C255.824 136.841 249.899 139.188 251.501 143.063C251.715 143.539 252.025 143.966 252.412 144.317C252.798 144.668 253.253 144.935 253.748 145.102C254.243 145.269 254.766 145.332 255.287 145.288C255.807 145.243 256.312 145.092 256.771 144.843Z" fill="#26847B"/>
<path d="M244.552 151.59C244.394 151.948 244.914 152.362 245.129 152.423C249.104 153.487 253.108 154.549 256.961 156.006C257.11 156.045 257.269 156.025 257.404 155.948C257.538 155.872 257.637 155.745 257.679 155.596C258.209 152.175 256.961 148.362 253.194 147.646C251.522 147.309 249.786 147.509 248.234 148.217C246.682 148.926 245.393 150.106 244.552 151.59Z" fill="#26847B"/>
<path d="M154.23 245.311C153.676 244.756 152.89 244.664 152.358 244.04C151.573 243.115 152.751 242.121 153.191 241.221C154.047 239.606 154.484 237.802 154.462 235.974C154.439 235.604 153.885 235.49 153.793 235.88C153.534 237.907 152.857 239.858 151.804 241.609C151.528 242.047 150.973 242.557 150.879 243.089C150.603 244.429 152.845 246.301 154.069 245.931C154.129 245.91 154.183 245.875 154.226 245.828C154.269 245.782 154.3 245.725 154.316 245.664C154.332 245.603 154.332 245.538 154.317 245.477C154.303 245.415 154.273 245.358 154.23 245.311Z" fill="#26847B"/>
<path d="M167.656 236.689C166.506 237.553 165.168 238.132 163.751 238.377C162.172 238.422 160.625 237.934 159.36 236.99C159.036 236.785 158.689 237.244 158.967 237.522C159.79 238.372 160.842 238.965 161.995 239.23C161.995 239.511 162.838 240.125 163.706 239.762C163.791 239.738 163.867 239.687 163.921 239.616C163.975 239.545 164.004 239.459 164.004 239.37C164.823 239.344 165.626 239.143 166.36 238.78C167.094 238.418 167.741 237.901 168.258 237.266C168.465 236.92 168.002 236.501 167.656 236.689Z" fill="#26847B"/>
<path d="M150.647 237.174C149.137 238.06 147.355 239.31 145.532 238.631C145.147 238.414 144.746 238.228 144.331 238.077C144.27 238.061 144.206 238.061 144.146 238.077C144.085 238.094 144.03 238.126 143.986 238.17C143.941 238.214 143.909 238.269 143.893 238.33C143.876 238.39 143.875 238.454 143.891 238.515C144.169 239.538 145.462 239.855 146.502 239.855C146.511 239.925 146.543 239.991 146.593 240.041C146.644 240.092 146.709 240.124 146.78 240.133C147.394 240.231 148.417 240.133 148.259 239.556C149.299 239.124 150.259 238.523 151.101 237.776C151.157 237.709 151.189 237.625 151.192 237.537C151.194 237.45 151.166 237.364 151.114 237.294C151.061 237.224 150.986 237.175 150.901 237.153C150.817 237.131 150.727 237.139 150.647 237.174Z" fill="#26847B"/>
<path d="M145.071 232.437C145.481 231.675 146.12 231.061 146.896 230.681C147.657 230.468 148.429 230.298 149.208 230.172C149.26 230.157 149.307 230.127 149.342 230.086C149.378 230.045 149.401 229.994 149.408 229.941C149.415 229.887 149.407 229.832 149.384 229.783C149.361 229.734 149.324 229.693 149.278 229.664C148.822 229.492 148.331 229.433 147.848 229.494C147.364 229.554 146.903 229.731 146.504 230.01C145.607 230.488 144.917 231.278 144.564 232.23C144.425 232.506 144.93 232.713 145.071 232.437Z" fill="#26847B"/>
<path d="M159.821 229.803C160.767 229.654 161.736 229.774 162.618 230.149C163.403 230.472 163.888 231.188 164.627 231.513C164.687 231.546 164.755 231.56 164.823 231.555C164.891 231.549 164.955 231.524 165.009 231.483C165.063 231.441 165.104 231.385 165.126 231.32C165.149 231.256 165.152 231.187 165.136 231.121C164.932 230.196 163.727 229.572 162.916 229.279C161.878 228.889 160.731 228.905 159.704 229.324C159.649 229.347 159.605 229.389 159.578 229.442C159.552 229.495 159.545 229.556 159.559 229.613C159.573 229.671 159.607 229.721 159.655 229.756C159.703 229.791 159.762 229.807 159.821 229.803Z" fill="#26847B"/>
<path d="M158.342 249.956C158.158 249.886 157.879 249.909 157.832 250.161C157.74 250.647 158.019 251.016 158.019 251.503C158.013 251.94 157.88 252.366 157.634 252.727C157.388 253.088 157.041 253.369 156.636 253.534C156.231 253.699 155.787 253.741 155.359 253.655C154.93 253.569 154.537 253.358 154.227 253.05C153.951 252.845 153.695 253.254 153.882 253.489C154.367 254.07 155.062 254.434 155.815 254.503C156.569 254.573 157.319 254.341 157.902 253.86C159.291 252.696 159.238 250.357 158.342 249.956Z" fill="#26847B"/>
<path d="M157.418 200.427C164.579 200.654 170.026 203.291 176 207.128C177.323 208.011 178.771 208.689 180.297 209.139C180.523 208.689 180.648 208.196 180.664 207.693C180.68 207.191 180.586 206.69 180.389 206.227C181.057 205.888 181.625 205.383 182.039 204.759C182.454 204.135 182.699 203.415 182.753 202.668C182.806 201.922 182.666 201.174 182.345 200.497C182.024 199.821 181.533 199.239 180.921 198.808C184.919 192.983 178.875 186.305 173.641 183.786C167.562 180.85 159.035 180.828 154.087 185.982C152.888 187.205 152.011 188.707 151.535 190.352C151.06 191.998 151 193.736 151.362 195.41C150.553 196.105 149.985 197.039 149.74 198.077C149.495 199.115 149.585 200.204 149.997 201.188C152.419 200.566 154.92 200.309 157.418 200.427Z" fill="#26847B"/>
<path d="M119.763 210.666C120.79 211.254 121.991 211.467 123.158 211.269C124.326 211.071 125.388 210.474 126.165 209.58C126.909 208.609 127.275 207.401 127.194 206.18C127.113 204.96 126.591 203.81 125.725 202.947C123.679 201.142 120.063 201.96 119.718 203.524C119.67 203.755 119.879 204.033 120.127 203.933C120.829 203.548 121.573 203.245 122.345 203.031C122.863 202.949 123.393 202.988 123.894 203.144C124.396 203.301 124.854 203.571 125.234 203.933C125.819 204.583 126.165 205.414 126.214 206.288C126.263 207.162 126.013 208.026 125.505 208.738C124.996 209.45 124.26 209.968 123.417 210.205C122.575 210.442 121.677 210.385 120.871 210.042C118.191 209.14 118.607 206.228 119.462 204.195C119.554 203.99 119.231 203.824 119.093 203.964C118.635 204.418 118.283 204.969 118.065 205.576C117.846 206.184 117.766 206.832 117.83 207.474C117.895 208.117 118.101 208.737 118.436 209.289C118.77 209.841 119.223 210.312 119.763 210.666Z" fill="#26847B"/>
<path d="M128.506 216.906C128.178 217.22 127.926 217.605 127.768 218.03C127.611 218.456 127.552 218.912 127.597 219.364C127.641 219.816 127.788 220.252 128.025 220.639C128.263 221.026 128.585 221.354 128.968 221.598C129.718 222.036 130.603 222.183 131.455 222.013C132.307 221.843 133.066 221.366 133.59 220.673C134.095 219.949 134.308 219.062 134.188 218.188C134.068 217.315 133.624 216.518 132.944 215.957C131.921 215.218 129.083 214.987 128.899 216.697C128.876 216.929 129.13 217.043 129.308 217.021C129.748 216.929 130.071 216.628 130.535 216.536C130.979 216.431 131.443 216.467 131.865 216.637C132.287 216.807 132.647 217.104 132.893 217.486C133.14 217.869 133.262 218.318 133.243 218.773C133.224 219.228 133.064 219.666 132.786 220.026C132.467 220.449 132.024 220.762 131.518 220.919C131.012 221.077 130.469 221.071 129.967 220.904C128.14 220.395 128.51 218.477 128.925 217.113C128.968 216.906 128.665 216.773 128.506 216.906Z" fill="#26847B"/>
<path d="M107.175 189.055C106.254 190.071 105.704 191.37 105.616 192.738C105.528 194.107 105.907 195.465 106.69 196.591C107.554 197.58 108.69 198.291 109.956 198.636C111.223 198.981 112.563 198.945 113.809 198.53C118.5 197.029 119.679 189.937 115.38 187.253C112.745 185.581 108.689 186.655 108.145 188.454C108.129 188.517 108.131 188.584 108.153 188.646C108.174 188.707 108.213 188.762 108.265 188.801C108.317 188.841 108.38 188.864 108.445 188.868C108.51 188.872 108.575 188.857 108.632 188.824C109.581 188.025 110.767 187.562 112.006 187.506C112.671 187.46 113.338 187.556 113.964 187.787C114.589 188.018 115.158 188.379 115.634 188.847C116.437 189.81 116.9 191.013 116.95 192.267C116.999 193.521 116.633 194.756 115.908 195.781C113.682 198.831 107.572 198.594 106.592 194.095C106.37 192.446 106.704 190.771 107.542 189.334C107.638 189.125 107.337 188.847 107.175 189.055Z" fill="#26847B"/>
<path d="M49.1859 162.871C50.2757 164.43 51.9205 165.513 53.7834 165.899C58.1353 166.942 102.964 164.876 110.594 164.027C111.586 164.01 112.559 163.747 113.426 163.263C114.293 162.779 115.026 162.088 115.562 161.252C118.526 156.18 117.726 144.237 117.342 137.772C117.155 134.654 116.427 124.757 115.954 121.87C115.118 117.019 112.476 115.415 107.635 114.891C102.624 114.521 97.5906 114.575 92.5886 115.053C92.627 113.437 92.337 111.83 91.7362 110.329C91.1355 108.828 90.2364 107.465 89.0935 106.322C87.9506 105.179 86.5876 104.28 85.087 103.679C83.5864 103.078 81.9795 102.787 80.3635 102.826C73.5911 103.079 68.9691 109.25 68.5292 115.63C64.2039 115.563 59.8835 115.95 55.6391 116.786C51.6862 117.686 48.1977 119.605 47.1808 123.789C46.2028 127.818 45.3537 141.735 47.3649 156.307C47.4984 158.6 48.1192 160.837 49.1859 162.871ZM80.8095 109.017C82.5095 108.973 84.1573 109.606 85.391 110.777C86.6247 111.947 87.3435 113.559 87.3896 115.259C77.7609 115.617 75.4857 115.499 74.2376 115.464C74.3594 113.773 75.0944 112.185 76.3046 110.998C77.5147 109.811 79.1167 109.106 80.8095 109.017ZM47.8212 126.191C48.388 121.559 50.0514 119.135 56.1588 117.756C63.9338 116 72.8525 116.921 86.3952 116.462C102.892 115.926 106.631 115.439 110.27 116.507C115.386 117.983 115.091 123.165 115.562 128.757C116.024 133.889 116.394 139.02 116.509 144.149C116.625 149.211 117.065 154.967 115.099 159.751C113.921 162.539 112.47 162.842 109.483 163.102C103.027 163.732 67.3793 165.492 56.3491 165.113C51.1603 164.898 49.4519 162.746 48.6764 157.993C47.0499 147.471 46.7625 136.786 47.8212 126.191Z" fill="#26847B"/>
<path d="M49.2034 139.433C52.8085 139.468 56.4361 139.228 60.0474 139.04C60.1098 139.978 60.4674 140.872 61.0691 141.594C61.6707 142.316 62.4855 142.83 63.3968 143.061C63.9306 143.112 64.4687 143.027 64.9606 142.813C65.4526 142.6 65.8823 142.265 66.2095 141.84C66.5366 141.415 66.7506 140.914 66.8312 140.384C66.9118 139.854 66.8565 139.312 66.6704 138.809C66.6704 138.588 64.7962 138.94 94.7012 137.606C94.7602 138.545 95.1168 139.442 95.7194 140.165C96.322 140.888 97.1392 141.401 98.0526 141.628C98.5864 141.68 99.1245 141.595 99.6165 141.381C100.108 141.168 100.538 140.833 100.865 140.408C101.192 139.983 101.406 139.482 101.487 138.952C101.568 138.422 101.512 137.88 101.326 137.377C101.326 137.352 101.304 137.33 101.304 137.307C104.285 137.168 107.29 137.006 110.247 136.658C110.779 136.589 110.826 135.781 110.247 135.803C102.267 135.85 94.2879 136.474 86.3267 136.798C76.3932 137.195 53.8602 138.025 49.0888 138.67C48.6755 138.741 48.7942 139.433 49.2034 139.433Z" fill="#26847B"/>
<path d="M65.9202 195.275C72.1683 196.177 78.5387 194.963 84.017 191.826C89.4952 188.688 93.7664 183.809 96.1504 177.963C101.247 180.123 106.797 180.997 112.311 180.51C117.825 180.022 123.135 178.187 127.774 175.166C136.046 169.689 142.172 160.422 142.055 150.276C142.101 147.842 141.665 145.424 140.773 143.159C139.88 140.894 138.549 138.828 136.856 137.079C140.121 134.589 142.693 131.303 144.327 127.536C145.961 123.769 146.602 119.646 146.188 115.561C144.756 102.071 131.035 93.173 118.293 95.8922C118.237 93.1924 117.308 90.5833 115.644 88.4566C113.98 86.3298 111.671 84.8002 109.064 84.0972C106.456 83.3942 103.691 83.5557 101.184 84.5576C98.6762 85.5596 96.5611 87.3477 95.1561 89.6538C90.0246 84.2441 82.4911 82.2103 75.2338 81.9791C67.5365 81.7254 58.5012 83.0021 53.0935 89.0748C51.7861 90.4785 50.7746 92.1311 50.1194 93.934C49.4641 95.7369 49.1786 97.6533 49.2797 99.5689C40.9135 98.8508 33.0546 103.428 27.5774 109.482C21.8218 115.814 17.2469 124.968 19.9047 133.636C20.4706 135.63 21.4392 137.487 22.7507 139.093C24.0623 140.699 25.6889 142.019 27.5303 142.972C24.1 149.73 22.9412 157.414 24.2259 164.883C27.0004 180.78 38.405 185.945 46.2741 182.309C48.4521 185.731 51.3278 188.654 54.7132 190.889C58.0986 193.123 61.9175 194.617 65.9202 195.275ZM29.0791 174.626C23.9906 166.442 23.1702 153.816 28.895 142.994C28.9734 142.853 28.9931 142.687 28.9498 142.531C28.9066 142.376 28.8038 142.244 28.6638 142.163C20.9911 138.89 19.0474 129.613 21.3369 122.286C24.9605 110.695 37.296 99.3541 49.9488 100.84C50.3887 100.885 50.5626 100.43 50.5278 100.076C49.4188 92.0968 56.537 86.2553 63.4936 84.3607C73.5192 81.6252 87.0517 82.8016 94.6712 90.4845C94.3704 91.1781 95.3873 91.7551 95.7576 91.0635C96.9266 88.777 98.8425 86.9591 101.187 85.9116C103.532 84.8641 106.164 84.65 108.647 85.305C111.13 85.9599 113.315 87.4445 114.838 89.5121C116.361 91.5797 117.131 94.1061 117.02 96.6717C117.022 96.769 117.046 96.8646 117.09 96.9511C117.135 97.0376 117.198 97.1128 117.276 97.1707C117.355 97.2287 117.445 97.2679 117.541 97.2853C117.636 97.3027 117.735 97.2979 117.828 97.2712C121.695 96.3733 125.731 96.5053 129.531 97.6542C133.331 98.8031 136.764 100.929 139.486 103.819C148.488 113.343 145.988 129.376 135.533 136.475C135.45 136.525 135.38 136.594 135.328 136.675C135.275 136.756 135.242 136.848 135.231 136.944C135.22 137.04 135.231 137.137 135.263 137.228C135.295 137.319 135.347 137.402 135.416 137.47C142.305 143.608 141.912 154.452 137.937 162.129C134.116 169.413 127.662 174.967 119.89 177.66C112.118 180.352 103.611 179.981 96.1034 176.621C96.0213 176.577 95.9306 176.552 95.8378 176.548C95.7449 176.543 95.6522 176.559 95.5662 176.594C95.4803 176.63 95.4032 176.684 95.3404 176.752C95.2776 176.821 95.2308 176.902 95.2031 176.991C93.7772 180.647 91.5853 183.955 88.7748 186.694C85.9642 189.433 82.6001 191.538 78.9084 192.868C73.0595 194.856 66.706 194.78 60.9066 192.652C55.1071 190.524 50.2121 186.473 47.0373 181.173C46.9523 181.032 46.8158 180.928 46.6563 180.885C46.4968 180.842 46.3268 180.862 46.182 180.942C39.7574 184.343 32.5656 180.253 29.0791 174.626Z" fill="#26847B"/>
<path d="M277.548 360.406C275.975 360.228 274.39 360.174 272.809 360.245C269.783 360.22 239.899 360.29 237.979 360.314C237.871 360.322 237.77 360.37 237.696 360.449C237.622 360.528 237.581 360.632 237.581 360.741C237.581 360.849 237.622 360.953 237.696 361.033C237.77 361.112 237.871 361.16 237.979 361.167C275.933 361.245 275.569 361.372 277.57 361.053C277.849 360.985 277.849 360.455 277.548 360.406Z" fill="#26847B"/>
<path d="M83.1773 360.406C81.6044 360.228 80.02 360.174 78.4386 360.245C75.4105 360.22 45.5281 360.29 43.6089 360.314C43.5008 360.322 43.3997 360.37 43.3258 360.449C43.2519 360.528 43.2108 360.632 43.2108 360.741C43.2108 360.849 43.2519 360.953 43.3258 361.033C43.3997 361.112 43.5008 361.16 43.6089 361.167C81.5629 361.245 81.1967 361.372 83.1998 361.053C83.478 360.985 83.476 360.455 83.1773 360.406Z" fill="#26847B"/>
<path d="M234.86 300.457C232.541 291.578 229.416 282.929 225.524 274.618C225.384 274.319 224.852 274.526 224.969 274.849C230.428 289.437 235.075 300.942 237.634 318.694C239.385 330.117 239.338 341.744 237.495 353.153C237.059 356.639 235.595 359.915 233.288 362.565C229.382 366.54 223.629 366.749 218.682 364.946C223.281 351.287 226.009 337.004 224.411 322.559C223.901 317.867 222.491 311.715 217.014 310.818C215.351 310.54 213.64 310.378 211.93 310.264C211.614 307.548 211.01 304.872 210.127 302.284C210.094 302.194 210.027 302.12 209.942 302.076C209.856 302.032 209.757 302.022 209.664 302.048C209.571 302.074 209.491 302.133 209.44 302.215C209.389 302.296 209.371 302.394 209.389 302.489C210.02 305.017 210.452 307.591 210.682 310.186C202.252 309.718 140.875 309.439 126.577 310.554C125.11 310.675 123.652 310.883 122.211 311.178C122.015 308.57 122.038 305.949 122.278 303.344C122.272 303.273 122.242 303.206 122.193 303.153C122.144 303.101 122.079 303.067 122.008 303.056C121.937 303.046 121.864 303.059 121.802 303.095C121.74 303.13 121.691 303.186 121.664 303.252C121.16 305.94 121.005 308.682 121.202 311.41C107.234 314.96 106.16 326.735 109.161 340.873C110.434 346.904 112.097 352.914 113.9 358.853C108.86 361.026 103.639 363.498 98.0225 362.505C91.8843 361.394 88.0848 355.987 86.8122 350.186C84.3119 338.745 88.2854 323.324 91.6429 312.13C94.1566 303.023 97.3232 294.109 101.118 285.458C106.874 273.091 116.026 259.381 129.638 259.18C136.457 259.088 142.397 263.201 149.122 263.618C150.633 269.365 153.17 274.791 156.611 279.635C158.869 283.427 161.545 286.954 164.59 290.149C165.167 290.728 165.677 291.052 166.463 290.558C167.477 289.793 168.339 288.844 169.004 287.761C173.296 281.567 176.878 274.91 179.682 267.915C180.578 266.189 181.083 264.287 181.161 262.344C181.893 261.942 182.65 261.588 183.426 261.282C184.159 261.07 184.865 260.775 185.53 260.402C185.563 260.378 185.588 260.345 185.602 260.306C185.616 260.268 185.618 260.226 185.608 260.187C185.598 260.147 185.577 260.111 185.546 260.084C185.516 260.057 185.478 260.039 185.438 260.034C183.737 260.127 182.114 260.774 180.816 261.875C180.498 261.875 180.433 262.125 179.96 263.747C177.628 258.419 176.597 252.613 176.955 246.808C182.344 246.026 183.77 239.909 180.097 237.396C188.728 228.872 187.484 214.849 180.629 210.055C175.966 208.889 173.395 205.662 167.293 203.26C162.618 201.327 157.511 200.68 152.502 201.388C149.416 201.895 146.558 203.329 144.308 205.501C142.058 207.673 140.523 210.479 139.907 213.545C138.884 217.404 139.537 224.338 141.802 226.949C141.966 227.142 142.167 227.301 142.394 227.416C142.62 227.531 142.866 227.6 143.119 227.62C142.448 232.889 133.99 236.126 137.157 241.996C138.029 243.14 138.737 244.4 139.26 245.74C139.653 247.52 138.497 249.161 137.943 250.777C137.364 252.512 137.388 255.193 139.514 255.794C139.589 255.809 139.667 255.797 139.735 255.761C139.802 255.725 139.856 255.667 139.885 255.596C139.915 255.526 139.92 255.447 139.898 255.374C139.877 255.3 139.831 255.236 139.768 255.193C137.108 253.298 139.698 249.873 140.177 247.635C140.756 244.93 138.861 243.428 137.775 241.232C135.672 236.981 140.801 234.184 142.997 230.671C142.733 233.575 142.617 236.491 142.651 239.407C142.604 243.742 143.252 248.057 144.57 252.187C146.043 256.518 148.406 260.074 152.936 260.854C153.026 261.86 152.888 262.872 152.531 263.817C152.175 264.762 151.61 265.613 150.878 266.309C150.485 265.247 150.139 264.183 149.816 263.096C149.805 263.05 149.784 263.007 149.756 262.969C149.727 262.931 149.691 262.9 149.65 262.876C149.609 262.852 149.564 262.837 149.516 262.831C149.469 262.826 149.422 262.83 149.376 262.843C142.79 262.229 137.012 258.266 130.348 258.104C126.094 258.053 121.915 259.224 118.307 261.478C103.641 270.434 96.2506 293.458 91.2644 309.765C87.4281 322.2 83.5467 335.79 85.5355 348.918C86.4828 355.181 90.2045 361.399 96.6291 363.154C102.407 364.725 108.948 362.508 114.194 359.733C115.119 362.737 118.516 373.208 119.279 375.426C119.397 375.901 119.803 375.835 120.009 375.835C218.628 375.084 214.581 375.774 214.915 375.105C216.142 372.099 217.296 369.073 218.358 365.998C220.339 366.768 222.453 367.134 224.576 367.075C226.7 367.015 228.791 366.532 230.725 365.652C237.172 362.555 238.5 355.066 239.253 348.67C240.894 332.466 239.403 316.098 234.86 300.457ZM153.808 261.003C158.729 261.47 163.166 258.685 167.027 255.618C168.748 254.5 170.036 252.83 170.679 250.882C170.772 250.442 170.147 250.118 169.916 250.556C168.043 253.614 165.375 256.107 162.197 257.769C160.674 258.82 158.938 259.524 157.113 259.831C155.288 260.139 153.418 260.041 151.635 259.547C145.292 257.253 143.674 246.483 143.592 239.671C143.547 235.626 144.054 231.651 144.263 227.63C147.63 225.782 150.785 223.574 153.675 221.044C149.378 217.648 147.925 212.34 148.822 209.533C148.829 209.512 148.843 209.494 148.861 209.481C148.88 209.468 148.901 209.461 148.924 209.461C148.946 209.461 148.968 209.468 148.987 209.481C149.005 209.494 149.019 209.512 149.026 209.533C149.279 211.681 149.783 213.791 150.528 215.821C151.412 217.721 152.716 219.396 154.342 220.719C164.03 226.726 163.234 227.137 170.473 234.032C171.479 235.173 172.666 236.141 173.986 236.897C174.199 237.353 174.308 237.851 174.304 238.355C174.3 238.859 174.184 239.355 173.963 239.808C173.431 241.036 172.507 242.073 172.044 243.366C170.9 246.53 173.022 249.56 173.067 252.52C172.93 254.266 172.358 255.95 171.404 257.419C170.34 259.5 169.208 262.573 171.128 264.514C171.191 264.573 171.274 264.608 171.36 264.612C171.447 264.616 171.532 264.589 171.601 264.537C171.67 264.484 171.718 264.409 171.737 264.325C171.756 264.24 171.744 264.151 171.705 264.074C169.763 260.817 172.523 257.951 173.53 254.923C174.616 251.733 172.836 248.989 172.605 245.863C172.376 242.812 175.426 240.825 175.126 237.82C175.148 237.82 175.148 237.82 175.171 237.797C175.731 237.549 176.338 237.424 176.951 237.43C177.564 237.437 178.168 237.576 178.722 237.836C179.277 238.097 179.769 238.474 180.165 238.942C180.561 239.41 180.852 239.957 181.018 240.547C181.112 241.202 181.064 241.87 180.877 242.505C180.69 243.14 180.369 243.728 179.935 244.228C179.501 244.727 178.964 245.128 178.362 245.403C177.76 245.677 177.105 245.818 176.443 245.818C176.297 245.819 176.156 245.878 176.053 245.982C175.949 246.085 175.89 246.226 175.889 246.372C175.488 251.084 176.022 255.828 177.46 260.332C177.876 262.007 178.591 263.592 179.572 265.012C176.627 273.434 172.432 281.366 167.128 288.541C165.671 290.262 165.773 289.893 164.605 288.658C162.286 286.059 160.185 283.273 158.323 280.33C155.513 276.306 153.157 271.983 151.299 267.44C152.205 266.649 152.907 265.65 153.343 264.53C153.78 263.409 153.939 262.199 153.808 261.003ZM172.136 344.553C172.127 345.415 171.899 346.259 171.473 347.008C171.047 347.756 170.438 348.384 169.703 348.833C168.968 349.281 168.131 349.535 167.27 349.571C166.41 349.606 165.555 349.422 164.785 349.036C164.174 348.712 163.635 348.268 163.201 347.731C162.766 347.194 162.444 346.574 162.254 345.91C162.064 345.245 162.01 344.549 162.095 343.863C162.181 343.177 162.404 342.516 162.751 341.918C165.71 337.695 172.453 339.864 172.136 344.553Z" fill="#26847B"/>
</svg>
