<svg width="41" height="41" viewBox="0 0 41 41" fill="none" xmlns="http://www.w3.org/2000/svg">
<path d="M26.8854 1.19388C19.8917 -1.3408 11.7657 0.156542 6.0813 5.72345C-1.86758 13.5106 -2.04929 26.3154 5.68526 34.3278L5.77843 34.4217L9.72956 30.5492C9.69229 30.5211 9.66435 30.4882 9.63173 30.4554C4.02186 24.6444 4.15232 15.3458 9.92061 9.69445C14.0488 5.65304 19.9429 4.56876 25.0216 6.40875C27.0391 7.1363 28.9308 8.32854 30.529 9.98547C30.5616 10.0183 30.5896 10.0465 30.6175 10.084L34.564 6.21631C34.5361 6.17876 34.5081 6.15059 34.4755 6.11774C32.2716 3.84591 29.667 2.20306 26.8854 1.19388Z" fill="#52A647"/>
<path d="M34.5639 6.22559C36.1295 7.86374 37.3688 9.70373 38.2728 11.6564C41.7952 19.2463 40.3741 28.5636 34.0793 34.7267C26.1631 42.4809 13.5129 42.3354 5.77832 34.4216L9.72946 30.5491C15.344 36.2709 24.5043 36.3648 30.24 30.7463C34.8108 26.2683 35.8359 19.5092 33.2826 14.0033C32.6349 12.5951 31.745 11.2668 30.6174 10.0886L34.5639 6.22559Z" fill="#52A647"/>
<path fill-rule="evenodd" clip-rule="evenodd" d="M23.032 14.027C21.965 12.3654 20.94 11.1778 20.6371 10.8399L20.5765 10.7742L20.5439 10.8117C20.2411 11.1497 19.2067 12.3466 18.1304 14.027H23.032Z" fill="#52A647"/>
<path fill-rule="evenodd" clip-rule="evenodd" d="M15.9076 25.4802H25.2963C25.5665 24.8653 25.7668 24.1706 25.8647 23.3867H15.3252C15.4277 24.1706 15.6327 24.87 15.9076 25.4802Z" fill="#52A647"/>
<path fill-rule="evenodd" clip-rule="evenodd" d="M15.614 19.5706C15.4416 20.2606 15.3251 20.9599 15.2832 21.664H25.9019C25.8553 20.9599 25.7389 20.2606 25.5618 19.5706H15.614Z" fill="#52A647"/>
<path fill-rule="evenodd" clip-rule="evenodd" d="M24.0475 15.7498H17.1236C16.7741 16.4116 16.448 17.1157 16.1685 17.8432H25.0026C24.723 17.1157 24.3969 16.4116 24.0475 15.7498Z" fill="#52A647"/>
<path fill-rule="evenodd" clip-rule="evenodd" d="M20.6279 29.6716C20.6279 29.6716 22.6687 29.052 24.2203 27.2026H17.0029C18.5731 29.0473 20.6279 29.6716 20.6279 29.6716Z" fill="#52A647"/>
</svg>
