<svg width="47" height="48" viewBox="0 0 47 48" fill="none" xmlns="http://www.w3.org/2000/svg">
<path fill-rule="evenodd" clip-rule="evenodd" d="M26.8402 16.8988C25.4851 14.8002 24.1833 13.3004 23.7987 12.8735L23.7218 12.7905L23.6804 12.838C23.2958 13.2648 21.9821 14.7765 20.6152 16.8988H26.8402Z" fill="#26847B"/>
<path fill-rule="evenodd" clip-rule="evenodd" d="M17.793 31.3632H29.7163C30.0595 30.5866 30.3139 29.7093 30.4382 28.7192H17.0533C17.1835 29.7093 17.4439 30.5926 17.793 31.3632Z" fill="#26847B"/>
<path fill-rule="evenodd" clip-rule="evenodd" d="M17.42 23.8999C17.2011 24.7714 17.0532 25.6547 16.9999 26.5439H30.4854C30.4262 25.6547 30.2783 24.7714 30.0534 23.8999H17.42Z" fill="#26847B"/>
<path fill-rule="evenodd" clip-rule="evenodd" d="M28.1299 19.0742H19.3368C18.893 19.9101 18.4788 20.7993 18.1238 21.7182H29.3429C28.9878 20.7993 28.5737 19.9101 28.1299 19.0742Z" fill="#26847B"/>
<path fill-rule="evenodd" clip-rule="evenodd" d="M23.7873 36.6573C23.7873 36.6573 26.3791 35.8748 28.3495 33.5391H19.1837C21.1778 35.8689 23.7873 36.6573 23.7873 36.6573Z" fill="#26847B"/>
<path d="M47 24.2905C47 37.2692 36.4787 47.7905 23.5 47.7905C10.5213 47.7905 0 37.2692 0 24.2905C0 11.3118 10.5213 0.790527 23.5 0.790527C36.4787 0.790527 47 11.3118 47 24.2905ZM5.30988 24.2905C5.30988 34.3367 13.4539 42.4806 23.5 42.4806C33.5461 42.4806 41.6901 34.3367 41.6901 24.2905C41.6901 14.2444 33.5461 6.10041 23.5 6.10041C13.4539 6.10041 5.30988 14.2444 5.30988 24.2905Z" fill="#26847B"/>
</svg>
